<?xml version="1.0" encoding="UTF-8"?><svg xmlns="http://www.w3.org/2000/svg" xmlns:xlink="http://www.w3.org/1999/xlink" data-name="Layer 1" height="2999.0" preserveAspectRatio="xMidYMid meet" version="1.0" viewBox="0.5 0.5 2999.0 2999.0" width="2999.0" zoomAndPan="magnify"><g id="change1_1"><path d="M1500,.5C671.85.5.5,671.85.5,1500S671.85,2999.5,1500,2999.5,2999.5,2328.15,2999.5,1500,2328.15.5,1500,.5ZM586.07,782.76H2412a10.09,10.09,0,0,1,7,17.41l-613.82,582.54-1,1-183.29,173.94a188.67,188.67,0,0,1-261.87-1.39l-169.7-164.53c-.28-.27-.56-.55-.86-.82L579,800.09A10.09,10.09,0,0,1,586.07,782.76ZM500,2116.49V863.36a10.09,10.09,0,0,1,17.11-7.25l579.16,561.54a10.1,10.1,0,0,1,.71,13.72L517.83,2123A10.09,10.09,0,0,1,500,2116.49Zm1930.81,100.75H569.19a10.09,10.09,0,0,1-7.73-16.57l594.56-710a10.09,10.09,0,0,1,14.76-.76l130.12,126.16a271.25,271.25,0,0,0,188.21,76.85h1.49a271.31,271.31,0,0,0,187.56-74.85l144-136.71a10.09,10.09,0,0,1,14.68.84l601.66,718.47A10.09,10.09,0,0,1,2430.81,2217.24ZM2500,2116.49a10.09,10.09,0,0,1-17.83,6.47l-585.52-699.21a10.09,10.09,0,0,1,.79-13.8L2483,854.25a10.09,10.09,0,0,1,17,7.32Z"/></g></svg>