<?xml version="1.0" encoding="UTF-8" standalone="no"?><svg xmlns="http://www.w3.org/2000/svg" xmlns:xlink="http://www.w3.org/1999/xlink" fill="#000000" height="79.8" preserveAspectRatio="xMidYMid meet" version="1" viewBox="-0.1 -8.2 71.5 79.8" width="71.5" zoomAndPan="magnify"><g id="change1_1"><path d="M1541.54,1799.4 c0.05,0.12-0.01,0.26-0.13,0.31c-0.74,0.39-1.44,0.82-2.18,1.21c-6.53,3.38-12.91,7.15-18.75,11.81 c-6.35,5.07-12.18,10.92-17.36,17.32c-7.27,8.97-13.02,19.11-17.6,29.44c-2.04,4.6-4.01,9.13-5.48,13.81 c-0.04,0.17-0.21,0.27-0.38,0.23c-0.17-0.04-0.27-0.21-0.23-0.38c0.85-4.9,1.94-9.84,3.67-14.64c3.92-10.89,10.22-21.19,17.73-30.32 c5.36-6.52,11.48-12.4,18.19-17.33c6.14-4.5,12.68-8.46,19.77-10.91c0.8-0.28,1.61-0.47,2.43-0.69 C1541.35,1799.21,1541.49,1799.28,1541.54,1799.4z M1481.57,1871.96c2.52-3.62,5.17-7.11,8.16-10.31c1.99-2.13,4.14-4.07,6.32-6.04 c0.26-0.28,0.7-0.29,0.99-0.03c0.28,0.27,0.3,0.71,0.04,0.99c-2.74,3.35-5.23,6.81-7.69,10.34c-1.62,2.32-3.25,4.64-4.74,7.07 c-0.28,0.43-2.11,4-3.19,5.09c-0.9,0.9-1.85,0.91-2.41,0.72c-0.23-0.08-1.27-0.94-1.69-2.78c-0.8-3.53-2.07-12.23-2.34-13.97 l-0.79-5.35c-0.02-0.69-0.92-3.33,0.51-3.49c1.1-0.54,1.72,1.04,2.21,3.02l1.06,5.34c0.29,1.49,1.13,6.81,2.04,10.77 C1480.68,1872.78,1481.44,1872.14,1481.57,1871.96z" fill="#00bf63" transform="matrix(-.87753 -.1313 .14305 -.87753 1095.35 1843.94)"/></g></svg>