<?xml version="1.0" encoding="UTF-8" standalone="no"?><svg xmlns="http://www.w3.org/2000/svg" xmlns:xlink="http://www.w3.org/1999/xlink" fill="#00bf63" height="125.1" preserveAspectRatio="xMidYMid meet" version="1" viewBox="25.1 38.1 152.0 125.1" width="152" zoomAndPan="magnify"><g id="change1_1"><path d="M51.36,136.6c-0.1,0.04-0.19,0.06-0.27,0.1c-2.19,0.98-4.46,1.75-6.75,2.47c-1.11,0.35-2.23,0.69-3.37,0.97 c-1.22,0.29-2.44,0.48-3.7,0.4c-0.21-0.01-0.43-0.04-0.64-0.09c-0.14-0.04-0.29-0.11-0.41-0.2c-0.15-0.1-0.14-0.28-0.01-0.39 c0.13-0.12,0.29-0.18,0.45-0.21c0.21-0.04,0.43-0.08,0.64-0.08c0.89,0,1.74-0.19,2.59-0.43c1.58-0.45,3.13-0.99,4.69-1.54 c2.08-0.73,4.11-1.56,6.06-2.57c0.15-0.08,0.29-0.16,0.45-0.25c-0.03-0.24-0.05-0.47-0.08-0.69c-0.17-1.26-0.34-2.53-0.5-3.79 c-0.05-0.41-0.07-0.83-0.1-1.24c-0.14-2.06-0.18-4.12-0.11-6.18c0.05-1.52,0.12-3.04,0.21-4.56c0.07-1.2,0.17-2.39,0.36-3.58 c0.27-1.72,0.69-3.4,1.39-5.01c0.43-0.99,0.95-1.93,1.66-2.76c1.36-1.57,3.07-2.53,5.12-2.87c1.37-0.22,2.73-0.09,4.07,0.24 c0.78,0.19,1.53,0.45,2.25,0.81c2.07,1.04,3.45,2.69,4.23,4.84c0.46,1.26,0.6,2.57,0.51,3.9c-0.24,3.48-1.38,6.66-3.12,9.65 c-1.45,2.5-3.31,4.66-5.48,6.56c-1.39,1.22-2.86,2.34-4.4,3.35c-0.06,0.04-0.12,0.09-0.2,0.14c0,0.1-0.01,0.21,0,0.31 c0.2,1.28,0.39,2.55,0.6,3.83c0.31,1.93,0.65,3.85,1.07,5.76c0.53,2.48,1.08,4.95,1.62,7.43c0.04,0.18,0.09,0.35,0.14,0.56 c0.05-0.05,0.1-0.07,0.11-0.1c0.81-4.11,2.01-8.11,3.35-12.07c0.63-1.88,1.35-3.73,2.21-5.52c1.02-2.12,2.25-4.13,3.6-6.06 c0.38-0.54,0.79-1.06,1.27-1.52c0.58-0.56,1.25-0.94,2.04-1.1c0.83-0.16,1.65-0.14,2.46,0.12c0.6,0.2,1.09,0.56,1.46,1.07 c0.26,0.35,0.45,0.74,0.6,1.14c0.32,0.84,0.52,1.7,0.65,2.59c0.28,1.83,0.36,3.67,0.4,5.52c0.05,3.12-0.02,6.24-0.07,9.37 c-0.02,1.45-0.01,2.89,0.06,4.34c0.06,1.12,0.18,2.24,0.33,3.35c0.19,1.31,0.42,2.61,0.76,3.89c0.17,0.62,0.37,1.24,0.67,1.81 c0.21,0.41,0.46,0.8,0.84,1.11c0.09-0.05,0.17-0.08,0.24-0.13c0.39-0.29,0.69-0.65,0.97-1.04c0.49-0.7,0.85-1.46,1.16-2.25 c0.54-1.38,0.94-2.8,1.28-4.23c0.48-2.02,0.88-4.05,1.22-6.1c0.27-1.62,0.54-3.24,0.82-4.86c0.18-1.06,0.38-2.12,0.59-3.17 c0.05-0.24,0.07-0.49,0.06-0.73c-0.12-2.32-0.12-4.64-0.08-6.97c0.02-1.21,0.07-2.43,0.2-3.64c0.17-1.59,0.54-3.15,0.99-4.68 c0.34-1.15,0.75-2.28,1.29-3.35c0.35-0.7,0.76-1.37,1.24-1.99c0.31-0.39,0.64-0.74,1.03-1.05c0.81-0.65,1.74-0.97,2.76-1.04 c1.45-0.1,2.77,0.27,3.94,1.15c0.56,0.42,1.07,0.88,1.52,1.41c1.1,1.26,1.77,2.72,2.05,4.37c0.15,0.9,0.21,1.8,0.17,2.71 c-0.09,1.8-0.58,3.48-1.64,4.96c-0.57,0.8-1.27,1.46-2.06,2.03c-1.22,0.88-2.56,1.52-3.98,2.01c-0.61,0.21-1.23,0.38-1.85,0.57 c-0.41,0.13-0.82,0.25-1.2,0.52c0,0.1-0.02,0.2-0.01,0.31c0.05,1.01,0.09,2.03,0.15,3.04c0.07,1.03,0.15,2.06,0.25,3.08 c0.08,0.87,0.18,1.74,0.3,2.61c0.23,1.6,0.63,3.16,1.3,4.65c0.29,0.65,0.64,1.26,1.07,1.83c0.44,0.58,0.97,1.06,1.59,1.45 c0.66,0.41,1.32,0.44,2.02,0.12c0.55-0.26,1.03-0.6,1.47-1.02c0.5-0.47,0.92-0.99,1.3-1.55c0.76-1.13,1.36-2.34,1.86-3.6 c0.76-1.9,1.35-3.86,1.84-5.84c0.58-2.31,1.09-4.64,1.54-6.98c0.28-1.46,0.51-2.94,0.7-4.42c0.22-1.74,0.37-3.49,0.46-5.24 c0.06-1.12,0.12-2.24,0.19-3.36c0.04-0.67,0.09-1.35,0.17-2.02c0.04-0.33,0.12-0.67,0.22-0.99c0.22-0.74,0.63-1.36,1.18-1.9 c0.42-0.41,0.89-0.76,1.38-1.08c1.2-0.78,2.45-1.47,3.73-2.11c1.43-0.71,2.88-1.39,4.32-2.08c0.47-0.23,0.96-0.4,1.48-0.49 c0.6-0.09,1.2-0.08,1.78,0.08c0.13,0.04,0.26,0.09,0.39,0.14c0.52,0.22,0.8,0.62,0.81,1.18c0.01,0.54-0.01,1.08-0.04,1.61 c-0.04,0.69-0.1,1.38-0.15,2.07c-0.08,1.07-0.15,2.15-0.24,3.22c-0.09,1.01-0.2,2.02-0.31,3.03c-0.13,1.07-0.28,2.13-0.42,3.2 c-0.13,0.96-0.26,1.92-0.4,2.88c-0.13,0.93-0.28,1.85-0.42,2.78c-0.14,0.97-0.28,1.95-0.42,2.92c-0.12,0.84-0.23,1.68-0.33,2.51 c-0.08,0.69-0.15,1.38-0.2,2.07c-0.07,1.09-0.14,2.18-0.09,3.27c0.06,1.51,0.21,3.01,0.62,4.47c0.14,0.49,0.31,0.96,0.55,1.41 c0.12,0.22,0.24,0.43,0.44,0.61c0.08-0.04,0.17-0.06,0.24-0.11c0.43-0.27,0.81-0.61,1.18-0.96c0.87-0.86,1.61-1.82,2.25-2.86 c0.91-1.49,1.64-3.06,2.27-4.68c1.22-3.11,2.19-6.3,2.96-9.55c0.32-1.36,0.32-1.36,0.25-2.73c-0.05-1.11-0.05-2.21-0.01-3.32 c0.04-0.98,0.07-1.97,0.13-2.95c0.04-0.71,0.11-1.41,0.21-2.11c0.13-0.98,0.26-1.95,0.43-2.92c0.57-3.16,1.29-6.29,2.4-9.32 c0.48-1.32,1.04-2.6,1.76-3.8c0.39-0.65,0.8-1.27,1.32-1.83c0.8-0.85,1.77-1.43,2.91-1.67c1.07-0.23,2.14-0.21,3.2,0.08 c0.74,0.2,1.4,0.56,1.98,1.05c1.25,1.05,2.26,2.31,2.99,3.77c0.53,1.04,0.69,2.15,0.53,3.32c-0.14,1-0.42,1.95-0.85,2.86 c-0.54,1.13-1.32,2.07-2.33,2.81c-0.86,0.63-1.81,1.1-2.8,1.48c-1.04,0.4-2.11,0.68-3.19,0.91c-0.54,0.12-1.08,0.24-1.62,0.37 c-0.21,0.05-0.41,0.13-0.62,0.19c-0.09,0.37-0.12,0.74-0.16,1.1c-0.14,1.41-0.25,2.82-0.3,4.23c-0.05,1.2-0.11,2.4-0.13,3.6 c-0.03,1.38,0.02,2.77,0.17,4.15c0.16,1.52,0.47,3.01,1.01,4.44c0.22,0.59,0.49,1.16,0.82,1.7c0.21,0.34,0.45,0.66,0.74,0.94 c0.16,0.15,0.31,0.3,0.56,0.38c0.15-0.06,0.32-0.12,0.48-0.2c0.51-0.25,0.97-0.59,1.41-0.95c1.09-0.89,2.02-1.93,2.89-3.03 c1.11-1.4,2.06-2.91,2.98-4.44c1.26-2.1,2.42-4.25,3.58-6.4c1.62-3,3.11-6.08,4.61-9.14c2-4.07,4-8.14,6-12.21 c0.04-0.08,0.08-0.17,0.12-0.25c0.26-0.54,0.69-0.89,1.25-1.09c0.6-0.21,1.2-0.24,1.81-0.07c0.18,0.05,0.35,0.12,0.5,0.22 c0.35,0.22,0.48,0.55,0.4,0.95c-0.03,0.16-0.09,0.32-0.16,0.48c-0.58,1.31-1.16,2.61-1.75,3.91c-2.17,4.75-4.36,9.5-6.53,14.25 c-0.83,1.82-1.63,3.65-2.47,5.46c-1.13,2.44-2.39,4.82-3.8,7.12c-0.75,1.22-1.57,2.39-2.49,3.49c-0.74,0.89-1.55,1.71-2.46,2.42 c-1.26,0.99-2.68,1.6-4.25,1.92c-1.16,0.23-2.32,0.27-3.49,0.16c-0.88-0.08-1.73-0.28-2.55-0.61c-1.25-0.51-2.24-1.32-2.98-2.45 c-0.09-0.14-0.18-0.28-0.27-0.41c-0.12,0.02-0.13,0.1-0.15,0.17c-0.37,1.19-0.72,2.38-1.1,3.57c-0.48,1.49-1.06,2.95-1.74,4.36 c-0.6,1.24-1.31,2.4-2.18,3.47c-0.53,0.65-1.11,1.23-1.77,1.74c-1.07,0.83-2.28,1.31-3.63,1.46c-1.12,0.13-2.21,0.04-3.28-0.29 c-1.33-0.4-2.32-1.22-2.98-2.45c-0.43-0.81-0.71-1.67-0.92-2.55c-0.29-1.25-0.45-2.51-0.47-3.79c-0.01-0.85-0.02-1.69,0.02-2.54 c0.04-0.86,0.13-1.72,0.24-2.57c0.14-1.11,0.3-2.22,0.48-3.33c0.22-1.32,0.45-2.64,0.7-3.95c0.35-1.84,0.71-3.68,1.07-5.52 c0.32-1.64,0.64-3.29,0.95-4.93c0.23-1.22,0.46-2.45,0.7-3.67c0.1-0.51,0.22-1.02,0.33-1.53c0.03-0.15,0.06-0.29,0.09-0.43 c-0.15-0.08-0.23,0.01-0.32,0.05c-1.52,0.68-3,1.42-4.44,2.24c-0.47,0.27-0.93,0.55-1.38,0.84c-0.25,0.16-0.48,0.34-0.71,0.52 c-0.89,0.68-1.37,1.6-1.51,2.7c-0.07,0.55-0.12,1.1-0.16,1.65c-0.05,0.66-0.08,1.32-0.12,1.98c-0.08,1.15-0.16,2.3-0.25,3.45 c-0.06,0.8-0.13,1.59-0.22,2.39c-0.08,0.79-0.18,1.59-0.29,2.38c-0.15,1.05-0.32,2.1-0.51,3.14c-0.24,1.35-0.5,2.69-0.77,4.03 c-0.33,1.6-0.68,3.19-1.09,4.76c-0.47,1.8-1.02,3.58-1.75,5.29c-0.39,0.92-0.85,1.81-1.38,2.66c-0.52,0.83-1.12,1.58-1.86,2.22 c-0.91,0.8-1.96,1.32-3.13,1.6c-1.78,0.43-3.54,0.36-5.26-0.29c-1.49-0.57-2.7-1.52-3.64-2.81c-0.74-1.01-1.27-2.14-1.71-3.31 c-0.05-0.13-0.1-0.25-0.17-0.44c-0.05,0.16-0.09,0.26-0.11,0.36c-0.28,1.64-0.55,3.27-0.85,4.91c-0.32,1.77-0.72,3.52-1.29,5.23 c-0.23,0.69-0.49,1.36-0.84,1.99c-0.21,0.37-0.44,0.74-0.7,1.09c-0.69,0.92-1.62,1.49-2.74,1.74c-0.95,0.21-1.89,0.2-2.83-0.03 c-1.13-0.28-2.04-0.91-2.72-1.86c-0.32-0.45-0.58-0.94-0.79-1.45c-0.44-1.05-0.73-2.15-0.99-3.26c-0.33-1.38-0.56-2.77-0.71-4.18 c-0.19-1.73-0.25-3.47-0.17-5.21c0.02-0.45,0.03-0.89,0.05-1.34c0.08-1.52,0.17-3.04,0.25-4.56c0.03-0.51,0.06-1.01,0.09-1.52 c0.12-2.32,0.27-4.64,0.2-6.96c-0.03-1-0.1-2-0.35-2.97c-0.07-0.28-0.17-0.56-0.27-0.83c-0.06-0.16-0.13-0.31-0.3-0.43 c-0.19,0.08-0.35,0.23-0.5,0.37c-0.39,0.35-0.72,0.75-1.04,1.17c-0.86,1.13-1.6,2.33-2.31,3.55c-1.22,2.11-2.17,4.34-2.96,6.64 c-1,2.93-1.81,5.91-2.49,8.92c-0.28,1.23-0.52,2.47-0.71,3.71c-0.14,0.94-0.24,1.89-0.32,2.84c-0.11,1.41-0.15,2.83-0.2,4.24 c-0.04,1.09-0.11,2.18-0.17,3.27c-0.01,0.25-0.06,0.49-0.09,0.73c-0.05,0.38-0.26,0.65-0.59,0.83c-0.29,0.16-0.6,0.25-0.91,0.31 c-0.7,0.13-1.41,0.11-2.11-0.04c-0.81-0.18-1.42-0.62-1.83-1.35c-0.3-0.54-0.54-1.1-0.74-1.69c-0.63-1.91-1.2-3.84-1.65-5.81 c-0.63-2.74-1.25-5.48-1.85-8.23c-0.38-1.73-0.73-3.46-1.06-5.19c-0.23-1.18-0.41-2.36-0.61-3.54 C51.46,137,51.44,136.8,51.36,136.6z M56.55,131.29c0.12-0.08,0.19-0.12,0.25-0.16c1.75-1.37,3.39-2.85,4.79-4.58 c2.58-3.18,4.38-6.74,5.18-10.77c0.24-1.19,0.36-2.4,0.25-3.62c-0.12-1.33-0.52-2.55-1.22-3.68c-1.04-1.67-2.54-2.67-4.47-3.05 c-0.86-0.17-1.64-0.04-2.39,0.4c-0.91,0.53-1.64,1.23-2.16,2.15c-0.14,0.25-0.28,0.51-0.4,0.78c-0.68,1.5-1.01,3.09-1.18,4.72 c-0.16,1.52-0.09,3.04,0.02,4.56c0.08,1.09,0.16,2.18,0.25,3.26c0.07,0.87,0.13,1.75,0.21,2.62c0.07,0.83,0.16,1.65,0.25,2.48 c0.07,0.63,0.14,1.25,0.21,1.88c0.11,0.9,0.23,1.8,0.35,2.7C56.5,131.05,56.52,131.13,56.55,131.29z M91.73,132.12 c0.29-0.09,0.53-0.15,0.76-0.23c1.39-0.46,2.72-1.06,3.91-1.93c1.67-1.21,2.68-2.85,3.1-4.85c0.29-1.42,0.29-2.84,0-4.26 c-0.42-2.11-1.56-3.74-3.33-4.95c-0.16-0.11-0.35-0.19-0.52-0.29c-0.15-0.08-0.3-0.08-0.43,0.03c-0.2,0.17-0.4,0.33-0.58,0.52 c-0.35,0.37-0.62,0.8-0.86,1.25c-0.48,0.88-0.84,1.81-1.12,2.77c-0.33,1.12-0.55,2.27-0.72,3.42c-0.12,0.8-0.23,1.61-0.28,2.43 c-0.11,1.89-0.04,3.78,0.02,5.67C91.68,131.82,91.7,131.93,91.73,132.12z M137.77,111.87c1.28-0.27,2.46-0.6,3.56-1.15 c0.3-0.15,0.59-0.32,0.88-0.5c0.94-0.6,1.65-1.41,2.15-2.42c0.4-0.81,0.64-1.66,0.77-2.55c0.17-1.16-0.03-2.23-0.61-3.24 c-0.62-1.07-1.41-2.01-2.35-2.82c-0.1-0.09-0.22-0.16-0.34-0.25c-0.23,0.19-0.39,0.42-0.54,0.65c-0.4,0.59-0.71,1.22-1,1.87 c-0.61,1.38-1.02,2.83-1.38,4.29c-0.45,1.85-0.78,3.73-1.09,5.61C137.79,111.51,137.79,111.66,137.77,111.87z"/><path d="M106.69,77.99c-0.17-0.08-0.31-0.14-0.45-0.2c-1.28-0.58-2.4-1.37-3.32-2.44c-0.21-0.24-0.41-0.5-0.58-0.77 c-0.12-0.19-0.22-0.41-0.29-0.62c-0.23-0.69,0-1.33,0.61-1.73c0.31-0.21,0.66-0.33,1.02-0.41c0.73-0.16,1.47-0.15,2.2-0.05 c0.7,0.09,1.39,0.26,2.07,0.46c0.12,0.03,0.24,0.06,0.37,0.1c0.05-0.13,0.1-0.24,0.13-0.35c0.65-2.4,1.31-4.8,1.83-7.24 c0.34-1.58,0.61-3.17,0.87-4.76c0.28-1.68,0.58-3.36,0.89-5.04c0.3-1.65,0.62-3.29,0.95-4.93c0.32-1.61,0.68-3.22,1.02-4.83 c0.04-0.17,0.08-0.33,0.13-0.49c0.07-0.24,0.22-0.39,0.44-0.5c0.25-0.12,0.53-0.17,0.8-0.2c0.45-0.06,0.89,0.01,1.31,0.17 c0.33,0.12,0.54,0.35,0.56,0.72c0.01,0.2,0.05,0.4,0.06,0.6c0.07,2.01,0.05,4.03-0.03,6.04c-0.06,1.57-0.16,3.13-0.21,4.7 c-0.07,2.06-0.14,4.12-0.14,6.18c0,2.68,0,5.35-0.08,8.03c-0.03,1.06-0.09,2.12-0.14,3.18c-0.01,0.12,0,0.24,0,0.36 c0.14,0.05,0.21-0.05,0.29-0.11c0.69-0.57,1.37-1.14,2.05-1.72c1.45-1.26,2.88-2.55,4.22-3.93c1.08-1.1,2.08-2.26,3.08-3.43 c1.21-1.42,2.42-2.83,3.61-4.26c1.2-1.44,2.38-2.91,3.55-4.37c0.35-0.43,0.66-0.89,1-1.33c0.21-0.27,0.42-0.53,0.67-0.76 c0.47-0.44,1.03-0.5,1.64-0.35c0.07,0.02,0.15,0.05,0.21,0.08c0.24,0.13,0.26,0.26,0.1,0.48c-0.15,0.21-0.32,0.42-0.44,0.64 c-0.66,1.24-1.46,2.39-2.26,3.54c-1.24,1.78-2.56,3.5-3.91,5.2c-0.71,0.89-1.42,1.78-2.13,2.67c-1.38,1.72-2.9,3.31-4.51,4.81 c-1.29,1.19-2.6,2.35-3.98,3.44c-0.95,0.75-1.95,1.44-3.01,2.05c-0.1,0.06-0.2,0.13-0.33,0.21c0.1,0.09,0.17,0.17,0.25,0.23 c2.35,1.8,4.88,3.32,7.57,4.56c1.5,0.69,3.01,1.32,4.59,1.79c1.47,0.44,2.96,0.69,4.5,0.67c1.19-0.01,2.36-0.2,3.5-0.51 c2.83-0.77,5.56-1.79,8.15-3.16c0.56-0.29,1.09-0.63,1.62-0.97c0.47-0.3,0.88-0.67,1.24-1.1c0.41-0.49,0.91-0.87,1.54-1.04 c0.45-0.13,0.88-0.09,1.28,0.18c0.38,0.26,0.51,0.66,0.34,1.09c-0.06,0.15-0.15,0.3-0.26,0.43c-0.32,0.4-0.69,0.75-1.09,1.05 c-0.62,0.46-1.26,0.88-1.94,1.25c-2.08,1.15-4.25,2.08-6.49,2.86c-1.41,0.49-2.83,0.93-4.29,1.25c-1.15,0.25-2.31,0.37-3.48,0.41 c-0.97,0.03-1.94,0.01-2.9-0.1c-1.39-0.15-2.76-0.44-4.1-0.86c-2.89-0.91-5.6-2.22-8.18-3.79c-0.57-0.34-1.11-0.72-1.67-1.07 c-0.09-0.06-0.17-0.13-0.25-0.14c-0.1,0.05-0.09,0.12-0.09,0.17c-0.1,2.01-0.14,4.03-0.12,6.04c0.02,1.42,0.02,2.83,0.06,4.24 c0.04,1.38,0.11,2.77,0.17,4.15c0.01,0.23,0.04,0.46,0.08,0.69c0.04,0.28-0.07,0.48-0.31,0.61c-0.11,0.06-0.22,0.11-0.34,0.15 c-0.65,0.2-1.3,0.19-1.95-0.02c-0.07-0.02-0.14-0.06-0.21-0.09c-0.27-0.12-0.45-0.33-0.5-0.62c-0.07-0.36-0.13-0.73-0.17-1.09 c-0.19-1.76-0.3-3.52-0.39-5.29c-0.05-0.98-0.1-1.97-0.15-2.95c-0.04-0.89-0.08-1.78-0.13-2.67c-0.08-1.47-0.12-2.95-0.15-4.43 c0-0.09-0.02-0.18-0.04-0.29c-0.4,0.05-0.78,0.12-1.16,0.15c-0.38,0.03-0.76,0.03-1.14,0.05c-0.12,0.17-0.14,0.36-0.2,0.53 c-0.46,1.4-0.91,2.81-1.39,4.2c-0.62,1.81-1.37,3.56-2.29,5.23c-0.68,1.24-1.46,2.42-2.41,3.49c-0.49,0.55-1.02,1.07-1.62,1.51 c-1.04,0.77-2.2,1.21-3.48,1.37c-1,0.13-2,0.08-2.98-0.16c-1.62-0.4-2.89-1.33-3.87-2.66c-0.58-0.78-1.04-1.63-1.45-2.51 c-0.71-1.56-1.21-3.19-1.56-4.86c-0.06-0.3-0.07-0.61-0.21-0.9c-0.09,0.08-0.06,0.17-0.06,0.25c-0.08,1.13-0.2,2.27-0.34,3.4 c-0.12,0.96-0.27,1.92-0.49,2.86c-0.14,0.6-0.3,1.19-0.54,1.76c-0.1,0.24-0.21,0.48-0.33,0.71c-0.45,0.82-1.12,1.38-2.02,1.65 c-1.58,0.47-3.1,0.31-4.53-0.54c-0.83-0.49-1.53-1.13-2.16-1.86c-0.7-0.8-1.27-1.7-1.75-2.65c-0.78-1.54-1.43-3.13-1.99-4.76 c-0.78-2.27-1.37-4.59-1.79-6.96c-0.26-1.46-0.42-2.92-0.42-4.4c0-0.07-0.01-0.14-0.01-0.21c-0.13,0.01-0.13,0.1-0.15,0.17 c-0.23,0.78-0.46,1.56-0.7,2.34c-1.26,4.13-2.52,8.26-3.78,12.39c-0.56,1.82-1.13,3.64-1.79,5.43c-0.19,0.52-0.41,1.03-0.63,1.54 c-0.11,0.25-0.25,0.5-0.39,0.73c-0.51,0.89-1.3,1.37-2.29,1.54c-1.48,0.25-2.84-0.03-4.09-0.87c-0.89-0.6-1.64-1.34-2.3-2.18 c-1.13-1.45-2.01-3.05-2.67-4.77c-0.61-1.58-1.09-3.2-1.47-4.85c-0.01-0.04-0.02-0.09-0.04-0.13c-0.11-0.02-0.13,0.06-0.15,0.13 c-0.28,0.9-0.55,1.79-0.83,2.69c-0.61,1.94-1.24,3.86-2.04,5.73c-0.78,1.84-1.7,3.62-2.86,5.26c-0.56,0.79-1.18,1.54-1.84,2.25 c-1.17,1.26-2.61,1.97-4.3,2.22c-1.1,0.16-2.2,0.19-3.31-0.02c-1.06-0.2-2.02-0.62-2.85-1.32c-0.72-0.61-1.32-1.33-1.89-2.07 c-1.06-1.37-1.9-2.87-2.61-4.45c-1.15-2.53-2.01-5.15-2.67-7.84c-0.37-1.52-0.68-3.06-0.9-4.61c-0.16-1.11-0.27-2.23-0.31-3.35 c-0.02-0.6-0.06-1.2-0.07-1.8c-0.03-1.32,0.02-2.65,0.19-3.96c0.21-1.63,0.54-3.24,1.1-4.8c0.62-1.73,1.66-3.18,3-4.42 c0.74-0.68,1.59-1.21,2.55-1.54c1.1-0.38,2.23-0.44,3.37-0.29c1.67,0.21,3.23,0.75,4.71,1.53c1.66,0.87,3.05,2.06,4.16,3.58 c0.25,0.35,0.49,0.7,0.74,1.06c0.11,0.15,0.21,0.3,0.32,0.45c0.1,0.14,0.22,0.25,0.39,0.3c0.1,0.03,0.19,0.09,0.28,0.16 c0.1,0.08,0.1,0.24,0.01,0.33c-0.11,0.11-0.25,0.17-0.41,0.2c-0.74,0.16-1.41,0.03-1.99-0.46c-0.23-0.2-0.44-0.43-0.64-0.67 c-0.39-0.45-0.77-0.92-1.16-1.37c-1.52-1.73-3.41-2.9-5.62-3.55c-0.43-0.13-0.87-0.2-1.3-0.29c-0.46-0.09-0.88-0.01-1.29,0.21 c-0.67,0.37-1.24,0.86-1.73,1.43c-1.07,1.25-1.8,2.67-2.18,4.27c-0.27,1.17-0.47,2.35-0.57,3.55c-0.14,1.64-0.11,3.29-0.01,4.93 c0.07,1.24,0.21,2.48,0.4,3.71c0.19,1.21,0.45,2.42,0.72,3.62c0.7,3.08,1.66,6.07,2.87,8.99c0.7,1.7,1.54,3.32,2.62,4.81 c0.33,0.46,0.7,0.9,1.07,1.32c0.21,0.24,0.47,0.44,0.73,0.64c0.25,0.19,0.55,0.26,0.87,0.27c0.65,0.01,1.24-0.17,1.79-0.52 c0.45-0.29,0.86-0.65,1.24-1.03c1.22-1.21,2.25-2.57,3.13-4.04c1.12-1.88,2.02-3.87,2.78-5.92c0.8-2.16,1.46-4.37,2.03-6.61 c0.27-1.06,0.55-2.11,0.83-3.17c0.13-0.51,0.29-1.01,0.54-1.47c0.09-0.18,0.1-0.35,0.08-0.53c-0.09-0.86-0.18-1.71-0.25-2.57 c-0.12-1.42-0.23-2.85-0.34-4.28c-0.11-1.47-0.22-2.94-0.31-4.42c-0.18-2.83-0.21-5.66-0.15-8.49c0.02-0.84,0.09-1.69,0.14-2.53 c0.03-0.46,0.06-0.92,0.11-1.38c0.13-1.33,0.23-2.67,0.4-3.99c0.32-2.48,0.88-4.9,1.74-7.25c0.33-0.9,0.74-1.76,1.29-2.54 c0.18-0.27,0.38-0.52,0.58-0.77c0.74-0.94,1.73-1.45,2.9-1.64c0.64-0.1,1.29-0.11,1.93,0c0.79,0.13,1.5,0.43,2.13,0.93 c1.18,0.94,2.16,2.05,2.89,3.38c0.69,1.26,1.17,2.61,1.55,3.99c0.31,1.11,0.53,2.25,0.63,3.4c0.12,1.27,0.16,2.55,0.06,3.82 c-0.04,0.52-0.07,1.04-0.11,1.56c-0.13,1.56-0.35,3.12-0.68,4.65c-0.55,2.59-1.34,5.11-2.39,7.55c-0.97,2.25-2.26,4.3-3.86,6.15 c-0.62,0.71-1.29,1.36-1.99,1.99c-0.53,0.47-1.06,0.94-1.59,1.41c-0.14,0.12-0.27,0.25-0.39,0.37c-0.03,0.46,0.07,0.88,0.13,1.31 c0.13,0.96,0.27,1.92,0.43,2.87c0.45,2.72,1.07,5.39,2.03,7.98c0.6,1.62,1.39,3.15,2.46,4.52c0.28,0.36,0.61,0.69,0.92,1.03 c0.06,0.07,0.14,0.11,0.24,0.19c0.07-0.08,0.13-0.15,0.17-0.22c0.25-0.48,0.51-0.95,0.73-1.44c1.42-3.21,2.7-6.46,3.79-9.8 c1.52-4.64,2.97-9.31,4.43-13.97c0.22-0.7,0.44-1.41,0.66-2.11c0.15-0.47,0.35-0.92,0.6-1.35c0.29-0.52,0.71-0.93,1.19-1.27 c0.06-0.04,0.13-0.08,0.2-0.12c0.19-0.1,0.27-0.08,0.44,0.09c0.03,0.03,0.06,0.07,0.1,0.11c0.16,0.03,0.32,0.05,0.49,0.1 c0.12,0.03,0.23,0.07,0.34,0.13c0.13,0.07,0.21,0.19,0.22,0.33c0.01,0.14,0.02,0.28,0.02,0.41c0.01,0.85,0,1.69,0.02,2.54 c0.03,1,0.09,2,0.14,3c0.03,0.52,0.06,1.04,0.1,1.57c0.09,1.52,0.34,3.02,0.68,4.51c0.81,3.53,1.95,6.95,3.51,10.23 c0.34,0.71,0.69,1.41,1.09,2.08c0.61,1.01,1.34,1.91,2.27,2.65c0.19,0.15,0.38,0.31,0.62,0.41c0.17-0.09,0.27-0.24,0.38-0.39 c0.22-0.32,0.39-0.66,0.53-1.02c0.38-0.96,0.63-1.96,0.82-2.97c0.3-1.59,0.51-3.19,0.67-4.79c0.12-1.19,0.23-2.39,0.37-3.58 c0.13-1.08,0.27-2.17,0.43-3.25c0.15-1.05,0.3-2.1,0.49-3.14c0.5-2.85,1.24-5.64,2.39-8.31c0.37-0.85,0.8-1.66,1.3-2.44 c0.13-0.21,0.25-0.43,0.36-0.64c0.31-0.55,0.6-1.11,0.92-1.65c0.87-1.48,2.22-2.25,3.87-2.57c1.1-0.21,2.17-0.12,3.22,0.27 c1.02,0.38,2.02,0.83,2.95,1.39c0.61,0.37,1.18,0.78,1.67,1.3c0.54,0.56,0.96,1.2,1.15,1.97c0.04,0.18,0.06,0.36,0.08,0.55 c0.02,0.24-0.1,0.41-0.3,0.53c-0.24,0.14-0.51,0.21-0.79,0.24c-0.38,0.04-0.77,0.03-1.14-0.07c-0.36-0.09-0.65-0.27-0.83-0.61 c-0.12-0.22-0.24-0.43-0.36-0.64c-0.2-0.36-0.4-0.73-0.62-1.08c-0.57-0.95-1.44-1.45-2.51-1.63c-0.66-0.11-1.32-0.08-1.97,0.08 c-0.16,0.04-0.33,0.09-0.48,0.15c-0.67,0.26-0.72,0.31-1.03,0.96c-0.77,1.67-1.37,3.39-1.68,5.21c-0.14,0.83-0.25,1.67-0.32,2.52 c-0.18,2.16-0.22,4.33-0.16,6.5c0.02,0.83,0.09,1.66,0.15,2.49c0.06,0.75,0.13,1.5,0.21,2.25c0.28,2.65,0.77,5.26,1.66,7.78 c0.28,0.8,0.61,1.58,1,2.33c0.24,0.45,0.5,0.88,0.82,1.28c0.32,0.4,0.68,0.75,1.12,1.02c0.22,0.13,0.42,0.15,0.66,0.05 c0.31-0.13,0.61-0.3,0.88-0.49c0.53-0.38,1-0.82,1.44-1.3c0.69-0.75,1.29-1.56,1.83-2.43c1-1.61,1.82-3.31,2.51-5.08 c0.71-1.82,1.34-3.67,1.92-5.53C106.62,78.24,106.65,78.13,106.69,77.99z M54.64,74.29c0.2-0.19,0.33-0.32,0.45-0.45 c1.71-1.79,3.09-3.82,4.16-6.06c1.36-2.86,2.3-5.86,2.94-8.95c0.32-1.57,0.55-3.15,0.67-4.74c0.08-1.12,0.14-2.24,0.1-3.36 c-0.06-1.54-0.29-3.06-0.69-4.55c-0.33-1.23-0.76-2.43-1.37-3.56c-0.6-1.13-1.41-2.09-2.4-2.89c-0.16-0.14-0.36-0.24-0.54-0.35 c-0.11-0.07-0.23-0.06-0.35-0.01c-0.23,0.09-0.44,0.23-0.61,0.41c-0.24,0.26-0.47,0.53-0.68,0.81c-0.59,0.83-1.02,1.75-1.33,2.72 c-0.73,2.29-1.18,4.65-1.38,7.04c-0.13,1.64-0.21,3.28-0.27,4.93c-0.08,2.12-0.02,4.24,0.09,6.36c0.03,0.58,0.07,1.17,0.11,1.75 c0.07,1.03,0.15,2.05,0.23,3.08c0.06,0.77,0.15,1.53,0.23,2.29c0.07,0.67,0.16,1.34,0.23,2.02c0.11,1.01,0.21,2.02,0.31,3.03 C54.58,73.93,54.61,74.07,54.64,74.29z M107.86,73.97c-0.08-0.05-0.14-0.09-0.21-0.13c-0.66-0.29-1.33-0.55-2.03-0.74 c-0.16-0.04-0.33-0.08-0.49-0.11c-0.28-0.05-0.38-0.01-0.45,0.31c-0.02,0.11,0,0.24,0.02,0.36c0.06,0.26,0.19,0.48,0.35,0.69 c0.54,0.72,1.19,1.32,1.94,1.81c0.06,0.04,0.13,0.05,0.22,0.07C107.45,75.48,107.67,74.73,107.86,73.97z M112.37,74.13 c0.07-1.87,0.16-3.67,0.19-5.47c-0.06,0.09-0.1,0.19-0.13,0.29c-0.38,1.53-0.75,3.06-1.13,4.6 C111.62,73.77,111.95,73.91,112.37,74.13z M110.81,75.59c-0.17,0.33-0.41,1.21-0.46,1.64c0.08,0,0.15,0.01,0.22,0 c0.56-0.1,1.1-0.27,1.62-0.5c0.03-0.01,0.05-0.06,0.09-0.12C111.79,76.26,111.31,75.91,110.81,75.59z"/><path d="M175.29,105.16c0.05,1.38,0.12,2.76,0.16,4.15c0.05,1.74,0.09,3.47,0.12,5.21c0.01,0.6-0.01,1.2-0.02,1.8 c0,0.14-0.02,0.28-0.04,0.41c-0.14,0.68-0.59,1.11-1.28,1.21c-0.17,0.02-0.34,0.03-0.51,0.01c-0.49-0.05-0.82-0.36-0.91-0.84 c-0.03-0.17-0.04-0.34-0.03-0.51c0.04-0.95-0.01-1.91-0.05-2.86c-0.05-1.09-0.08-2.18-0.14-3.27c-0.07-1.38-0.15-2.76-0.23-4.14 c-0.07-1.34-0.15-2.67-0.23-4.01c-0.07-1.24-0.16-2.49-0.24-3.73c-0.03-0.54-0.07-1.07-0.1-1.61c-0.07-1.23-0.15-2.45-0.22-3.68 c-0.08-1.52-0.16-3.04-0.24-4.56c-0.03-0.64-0.04-1.29-0.06-1.94c-0.05-2.38-0.11-4.77-0.16-7.15c-0.03-1.34-0.08-2.67-0.08-4.01 c0-1.08,0.05-2.15,0.07-3.23c0.01-0.3,0.06-0.61-0.05-0.91c-0.04-0.09,0.01-0.19,0.09-0.24c0.1-0.07,0.2-0.14,0.32-0.18 c0.45-0.15,0.91-0.15,1.36-0.01c0.31,0.1,0.5,0.29,0.53,0.63c0.02,0.18,0.06,0.36,0.07,0.55c0.04,0.78,0.07,1.57,0.11,2.35 c0.04,0.68,0.09,1.35,0.14,2.02c0.04,0.49,0.08,0.98,0.11,1.47c0.07,1.12,0.15,2.24,0.22,3.36c0.08,1.26,0.16,2.52,0.24,3.77 c0.04,0.72,0.08,1.44,0.12,2.16c0.04,0.6,0.08,1.2,0.12,1.79c0.05,0.71,0.1,1.41,0.15,2.12c0.05,0.78,0.09,1.57,0.13,2.35 c0.05,0.98,0.1,1.96,0.15,2.95c0.06,1.31,0.12,2.61,0.18,3.92c0.06,1.37,0.12,2.73,0.18,4.1c0.01,0.18,0,0.37,0,0.55 C175.27,105.16,175.28,105.16,175.29,105.16z"/><path d="M174.36,131.82c-0.39-0.01-0.77-0.08-1.13-0.2c-0.52-0.18-0.86-0.51-0.95-1.08c-0.01-0.05-0.01-0.09-0.03-0.14 c-0.14-0.36,0-0.63,0.27-0.86c0.42-0.37,0.91-0.62,1.46-0.75c0.7-0.17,1.4-0.17,2.09,0.04c0.17,0.05,0.35,0.13,0.5,0.22 c0.39,0.24,0.54,0.63,0.43,1.07c-0.08,0.32-0.25,0.59-0.47,0.83c-0.36,0.38-0.8,0.62-1.31,0.73 C174.93,131.76,174.64,131.78,174.36,131.82z"/><path d="M75.34,51.58c0.41-0.01,0.82,0.06,1.22,0.2c0.25,0.09,0.49,0.2,0.69,0.37c0.14,0.12,0.26,0.26,0.36,0.41 c0.13,0.2,0.12,0.42-0.03,0.6c-0.12,0.14-0.26,0.27-0.41,0.37c-0.18,0.12-0.35,0.24-0.5,0.39c-0.36,0.36-0.81,0.56-1.31,0.61 c-0.32,0.03-0.64,0.02-0.97,0.01c-0.26-0.01-0.51-0.1-0.74-0.25c-0.4-0.26-0.49-0.62-0.24-1.02c0.13-0.21,0.18-0.41,0.03-0.64 c-0.11-0.16-0.05-0.33,0.07-0.47c0.16-0.19,0.38-0.31,0.61-0.4C74.5,51.63,74.91,51.57,75.34,51.58z"/></g></svg>